<?xml version="1.0" standalone="no"?>
<!DOCTYPE svg PUBLIC "-//W3C//DTD SVG 20010904//EN"
 "http://www.w3.org/TR/2001/REC-SVG-20010904/DTD/svg10.dtd">
<svg version="1.0" xmlns="http://www.w3.org/2000/svg"
 width="360.000000pt" height="389.000000pt" viewBox="0 0 360.000000 389.000000"
 preserveAspectRatio="xMidYMid meet">

<g transform="translate(0.000000,389.000000) scale(0.100000,-0.100000)"
fill="blue" stroke="none">
<path d="M1043 3857 c-92 -33 -179 -114 -236 -220 -38 -71 -47 -98 -57 -178
-22 -165 18 -287 133 -414 26 -29 47 -59 47 -66 0 -8 -25 -45 -56 -84 -31 -38
-62 -78 -69 -89 -13 -17 -20 -11 -105 78 -103 107 -156 141 -280 181 -81 26
-89 27 -157 15 -59 -10 -82 -19 -122 -51 -65 -52 -107 -120 -124 -201 -12 -57
-12 -75 1 -137 l15 -71 304 -287 303 -288 96 -38 96 -38 93 12 94 11 109 139
109 139 83 -95 82 -95 -88 -118 c-48 -64 -133 -175 -188 -247 -97 -126 -100
-132 -117 -212 l-16 -83 134 -588 c161 -705 148 -673 304 -752 107 -54 177
-71 260 -61 69 8 119 41 194 125 48 54 55 67 70 140 l17 81 -82 410 c-45 226
-83 419 -83 430 -1 19 227 335 242 335 3 0 49 -47 101 -104 l94 -104 141 -52
c77 -29 154 -53 170 -52 17 0 219 35 450 77 l420 77 39 36 c106 101 149 234
118 373 -12 57 -21 74 -56 107 -35 34 -63 47 -184 87 l-142 47 -215 -36 c-117
-20 -223 -36 -234 -36 -14 0 -56 47 -141 157 -66 86 -118 158 -116 160 2 3 37
-5 77 -17 72 -22 75 -22 128 -5 107 34 171 109 201 240 17 71 16 74 -5 134
-12 33 -27 67 -32 73 -6 7 -118 148 -250 314 l-241 301 -63 25 c-35 14 -104
35 -154 47 l-90 21 -172 -28 -173 -28 -1 45 c-1 97 -24 187 -68 261 -59 99
-136 150 -281 185 -153 37 -249 40 -327 12z m433 -218 c98 -19 175 -103 192
-210 11 -69 -6 -172 -36 -220 -39 -63 -26 -114 26 -106 18 3 163 22 323 43
274 35 294 37 347 23 l57 -14 242 -299 c142 -175 245 -311 249 -328 9 -45 -3
-92 -34 -121 -45 -43 -69 -47 -144 -23 l-67 21 -187 250 c-103 138 -188 252
-190 254 -2 2 -56 -5 -121 -14 -133 -20 -169 -39 -158 -84 4 -14 52 -84 107
-156 72 -91 685 -889 734 -954 2 -2 135 20 296 49 l293 52 57 -18 c72 -21 99
-49 105 -108 8 -69 -4 -110 -45 -154 l-37 -39 -406 -72 -406 -72 -59 20 c-64
22 -55 15 -296 271 -126 135 -127 135 -146 115 -11 -11 -108 -135 -216 -274
-136 -177 -196 -263 -196 -280 0 -14 38 -222 85 -461 59 -307 83 -447 78 -474
-8 -52 -78 -121 -131 -129 -71 -12 -143 20 -172 77 -26 51 -262 1092 -262
1157 0 25 5 57 12 70 7 12 102 142 211 288 226 300 225 297 162 374 -110 134
-349 406 -358 406 -6 1 -82 -86 -169 -193 -143 -175 -162 -195 -195 -201 -22
-4 -49 -1 -69 8 -18 7 -154 130 -302 272 -285 273 -293 283 -275 352 11 47 52
92 94 103 74 20 107 -2 320 -205 194 -183 194 -184 211 -162 10 12 99 130 199
261 216 285 220 297 111 330 -74 22 -127 61 -164 121 -29 47 -31 56 -31 150 0
92 3 105 32 160 35 68 95 122 163 147 45 16 66 16 166 -3z"/>
</g>
</svg>
