<?xml version="1.0" standalone="no"?>
<!DOCTYPE svg PUBLIC "-//W3C//DTD SVG 20010904//EN"
 "http://www.w3.org/TR/2001/REC-SVG-20010904/DTD/svg10.dtd">
<svg version="1.0" xmlns="http://www.w3.org/2000/svg"
 width="512.000000pt" height="512.000000pt" viewBox="0 0 512.000000 512.000000"
 preserveAspectRatio="xMidYMid meet">

<g transform="translate(0.000000,512.000000) scale(0.100000,-0.100000)"
fill="#000000" stroke="none">
<path d="M30 4110 c-27 -27 -26 -73 5 -259 66 -389 175 -704 320 -928 79 -122
242 -282 365 -358 75 -47 325 -164 422 -198 17 -6 17 -10 -3 -59 -38 -94 -69
-191 -95 -292 -20 -80 -23 -101 -12 -108 50 -34 271 -133 359 -162 328 -105
684 -150 1189 -150 504 0 844 44 1165 148 112 37 324 135 345 161 14 17 -29
188 -88 348 -35 95 -38 109 -23 114 95 34 346 152 421 198 123 76 286 236 365
358 146 226 249 523 320 928 35 198 32 256 -10 273 -43 16 -80 -29 -139 -169
-166 -393 -401 -676 -676 -815 -141 -71 -248 -101 -532 -150 l-173 -30 -25 20
c-148 121 -316 229 -330 213 -4 -5 -55 -255 -114 -558 -59 -302 -113 -572
-119 -600 -10 -40 -13 97 -17 695 l-5 745 -55 20 c-50 18 -81 20 -330 20 -249
0 -280 -2 -330 -20 l-55 -20 -5 -745 c-3 -410 -6 -742 -8 -738 -1 4 -56 276
-123 605 -66 329 -122 599 -124 601 -10 10 -223 -129 -296 -194 -41 -36 -56
-44 -77 -40 -15 3 -70 12 -122 21 -353 58 -526 117 -699 238 -203 142 -403
415 -537 732 -46 109 -72 151 -102 165 -30 13 -29 13 -52 -10z"/>
<path d="M990 1373 l0 -306 25 -33 c28 -37 129 -106 224 -154 243 -122 621
-226 966 -266 192 -22 557 -22 730 0 482 62 969 234 1148 407 l47 45 0 302 0
302 -62 -31 c-156 -79 -403 -157 -623 -198 -564 -103 -1329 -94 -1860 24 -161
36 -396 114 -505 170 l-90 45 0 -307z m231 61 c41 -21 79 -102 79 -170 0 -137
-90 -233 -168 -178 -94 66 -87 300 11 348 40 19 41 19 78 0z m2755 0 c99 -47
107 -282 12 -348 -78 -55 -168 41 -168 178 0 65 38 149 77 170 36 19 38 19 79
0z m-2138 -218 c118 -62 136 -242 33 -329 -39 -33 -69 -41 -121 -34 -130 17
-190 187 -108 307 43 62 134 88 196 56z m1601 -15 c129 -92 83 -328 -69 -348
-52 -7 -82 1 -121 34 -102 86 -88 252 26 325 40 26 120 20 164 -11z m-792 -42
c83 -40 129 -137 104 -221 -27 -91 -100 -148 -191 -148 -127 0 -223 120 -191
238 33 126 163 187 278 131z"/>
</g>
</svg>
