<?xml version="1.0" standalone="no"?>
<!DOCTYPE svg PUBLIC "-//W3C//DTD SVG 20010904//EN"
 "http://www.w3.org/TR/2001/REC-SVG-20010904/DTD/svg10.dtd">
<svg version="1.0" xmlns="http://www.w3.org/2000/svg"
 width="512.000000pt" height="512.000000pt" viewBox="0 0 512.000000 512.000000"
 preserveAspectRatio="xMidYMid meet">

<g transform="translate(0.000000,512.000000) scale(0.100000,-0.100000)"
fill="#000000" stroke="none">
<path d="M2570 4919 c-168 -33 -322 -216 -368 -437 -9 -44 -14 -84 -10 -87 3
-4 38 5 76 19 66 23 203 56 237 56 12 0 15 -16 15 -90 0 -64 -4 -92 -12 -94
-7 -2 -47 -11 -88 -21 -41 -10 -110 -33 -152 -53 -73 -32 -77 -36 -72 -61 19
-84 29 -114 65 -189 127 -264 387 -349 591 -194 99 75 194 236 214 361 l7 41
-74 34 c-76 35 -184 70 -251 81 l-38 6 0 91 0 91 53 -7 c78 -11 174 -36 250
-67 l67 -27 0 27 c0 16 -9 63 -20 106 -72 281 -279 456 -490 414z"/>
<path d="M2102 3720 c-49 -29 -117 -89 -152 -135 -8 -11 -107 -163 -220 -337
-113 -175 -208 -318 -212 -318 -4 0 -133 55 -285 123 l-278 122 -85 0 c-96 0
-143 -19 -205 -80 -99 -99 -108 -219 -24 -310 35 -38 94 -68 526 -270 480
-224 487 -227 502 -206 9 11 93 121 186 245 94 124 175 224 180 222 15 -4 72
-143 96 -232 30 -112 30 -271 0 -379 -28 -102 -85 -219 -151 -314 l-52 -74
-127 6 c-370 16 -657 -49 -786 -178 -103 -102 -101 -226 8 -378 90 -126 242
-245 436 -342 431 -215 789 -310 1340 -356 132 -10 144 -14 595 -154 253 -79
461 -143 462 -142 1 1 -48 121 -108 267 l-110 266 -896 298 c-494 164 -899
300 -900 302 -5 4 51 174 58 174 3 0 165 -53 360 -118 l355 -119 355 119 c195
65 357 114 361 110 7 -8 60 -165 56 -167 -1 -1 -107 -37 -235 -80 -128 -42
-231 -79 -229 -81 2 -3 213 -74 468 -159 l464 -155 95 64 c465 315 514 621
123 763 -128 46 -275 65 -520 65 l-222 0 -40 58 c-59 84 -118 212 -142 310
-29 115 -23 295 14 420 33 108 76 206 86 194 4 -5 86 -112 181 -239 95 -126
175 -232 177 -234 6 -8 959 442 995 470 134 106 85 314 -93 394 -52 23 -72 27
-128 23 -58 -3 -98 -18 -349 -126 -155 -68 -286 -121 -291 -118 -5 3 -105 155
-222 337 -224 346 -271 406 -370 458 l-45 24 -55 -58 c-110 -117 -240 -182
-383 -192 -154 -11 -289 43 -422 169 -45 43 -83 78 -85 78 -2 0 -28 -14 -57
-30z"/>
<path d="M1527 633 c-13 -23 -158 -385 -155 -388 3 -3 668 202 675 209 2 2
-63 25 -144 51 -81 26 -197 67 -256 91 -119 49 -114 47 -120 37z"/>
</g>
</svg>
