<?xml version="1.0" standalone="no"?>
<!DOCTYPE svg PUBLIC "-//W3C//DTD SVG 20010904//EN"
 "http://www.w3.org/TR/2001/REC-SVG-20010904/DTD/svg10.dtd">
<svg version="1.0" xmlns="http://www.w3.org/2000/svg"
 width="225.000000pt" height="225.000000pt" viewBox="0 0 225.000000 225.000000"
 preserveAspectRatio="xMidYMid meet">

<g transform="translate(0.000000,225.000000) scale(0.100000,-0.100000)"
fill="#000000" stroke="none">
<path d="M1097 2114 c-4 -4 -7 -60 -7 -124 0 -95 3 -120 16 -131 11 -9 20 -10
32 -2 14 9 17 29 17 134 l0 124 -25 3 c-14 2 -29 0 -33 -4z"/>
<path d="M483 1953 c-23 -9 -14 -42 38 -133 56 -98 71 -115 94 -106 32 12 26
38 -30 133 -65 111 -72 119 -102 106z"/>
<path d="M1734 1952 c-22 -14 -126 -202 -120 -217 8 -22 34 -29 50 -16 22 19
116 189 116 210 0 10 -7 22 -16 25 -19 7 -16 7 -30 -2z"/>
<path d="M965 1707 c-100 -22 -168 -47 -259 -95 -245 -133 -411 -372 -449
-649 l-11 -83 -112 0 c-120 0 -142 -9 -129 -50 6 -20 6 -20 1120 -20 1114 0
1114 0 1120 20 13 41 -9 50 -129 50 l-112 0 -11 83 c-14 101 -56 230 -97 300
-24 40 -37 52 -56 52 -35 0 -37 -34 -6 -87 35 -60 83 -211 91 -285 l7 -63
-806 0 -806 0 0 33 c0 17 9 69 20 114 122 511 682 770 1152 532 43 -21 83 -39
88 -39 5 0 14 9 20 21 9 15 8 24 -2 36 -19 24 -182 98 -258 118 -85 22 -295
29 -375 12z"/>
<path d="M1647 1519 c-30 -17 -19 -43 46 -107 63 -62 83 -72 105 -50 20 20 14
31 -44 91 -67 68 -84 79 -107 66z"/>
<path d="M15 1479 c-4 -13 -2 -26 6 -34 22 -21 189 -115 204 -115 17 0 34 30
28 47 -6 16 -194 123 -215 123 -9 0 -20 -10 -23 -21z"/>
<path d="M1094 1486 c-8 -20 1 -45 18 -50 7 -2 51 -9 98 -15 154 -20 300 -110
402 -249 30 -40 45 -52 61 -50 53 7 18 86 -82 186 -108 108 -260 179 -408 189
-71 5 -83 4 -89 -11z"/>
<path d="M2105 1449 c-49 -28 -95 -58 -102 -66 -14 -19 0 -53 22 -53 19 0 197
104 209 123 11 17 -7 47 -28 47 -6 0 -51 -23 -101 -51z"/>
<path d="M1002 647 c-56 -56 -102 -110 -102 -119 0 -23 31 -38 79 -38 40 0 41
-1 41 -35 l0 -35 -299 0 c-259 0 -302 -2 -315 -16 -9 -8 -16 -19 -16 -23 0
-30 37 -31 646 -29 603 3 619 4 622 22 8 41 -19 46 -250 46 -132 0 -218 4
-218 10 0 23 52 60 86 60 44 0 74 15 74 38 0 25 -200 222 -225 222 -12 0 -61
-41 -123 -103z"/>
<path d="M146 635 c-39 -40 -9 -55 106 -55 82 0 100 3 105 16 14 37 -10 49
-104 52 -73 2 -94 0 -107 -13z"/>
<path d="M440 635 c-6 -8 -10 -22 -8 -32 3 -17 19 -18 213 -18 194 0 210 1
213 18 8 43 -10 47 -213 47 -156 0 -195 -3 -205 -15z"/>
<path d="M1416 637 c-13 -9 -16 -20 -12 -35 7 -21 13 -22 122 -22 97 0 116 3
121 16 3 9 2 24 -4 33 -14 22 -199 29 -227 8z"/>
<path d="M1726 634 c-19 -19 -20 -26 -4 -42 17 -17 369 -17 386 0 16 16 15 23
-4 42 -23 24 -355 24 -378 0z"/>
<path d="M1732 411 c-8 -4 -12 -19 -10 -32 3 -21 9 -24 56 -27 72 -4 100 18
66 52 -17 17 -90 22 -112 7z"/>
<path d="M680 185 c-6 -8 -10 -22 -8 -32 3 -16 14 -18 88 -18 76 0 85 2 88 19
2 11 -4 26 -14 33 -25 18 -138 17 -154 -2z"/>
<path d="M940 185 c-6 -8 -10 -22 -8 -32 3 -17 23 -18 323 -18 300 0 320 1
323 18 9 45 -2 47 -323 47 -252 0 -305 -2 -315 -15z"/>
</g>
</svg>
