<?xml version="1.0" standalone="no"?>
<!DOCTYPE svg PUBLIC "-//W3C//DTD SVG 20010904//EN"
 "http://www.w3.org/TR/2001/REC-SVG-20010904/DTD/svg10.dtd">
<svg version="1.0" xmlns="http://www.w3.org/2000/svg"
 width="362.000000pt" height="351.000000pt" viewBox="0 0 362.000000 351.000000"
 preserveAspectRatio="xMidYMid meet">

<g transform="translate(0.000000,351.000000) scale(0.100000,-0.100000)"
fill="#000000" stroke="none">
<path d="M1642 3147 c-127 -127 -232 -235 -232 -240 0 -4 56 -7 125 -7 l125 0
0 -210 0 -210 30 0 c25 0 30 -4 30 -25 0 -16 6 -25 15 -25 10 0 15 -10 15 -30
l0 -30 175 0 175 0 0 265 0 265 132 0 133 0 -240 240 c-132 132 -242 240 -245
240 -3 0 -110 -105 -238 -233z"/>
<path d="M1770 1780 l0 -330 110 0 110 0 0 330 0 330 -30 0 -30 0 0 -300 0
-300 -50 0 -50 0 0 300 0 300 -30 0 -30 0 0 -330z"/>
<path d="M805 1700 c-19 -21 -17 -23 193 -233 l212 -213 -33 -32 -33 -32 -209
210 c-115 116 -215 210 -221 210 -6 0 -18 -8 -27 -18 -16 -18 -5 -31 220 -255
l238 -236 78 77 77 77 -232 232 c-128 128 -236 233 -239 233 -3 0 -14 -9 -24
-20z"/>
<path d="M2692 1487 l-232 -232 77 -77 78 -77 238 236 c225 224 236 237 220
255 -9 10 -21 18 -27 18 -6 0 -106 -94 -221 -210 l-209 -210 -33 32 -33 32
212 213 c210 210 212 212 193 233 -10 11 -21 20 -24 20 -3 0 -111 -105 -239
-233z"/>
<path d="M1745 1180 c-22 -5 -70 -20 -107 -33 -186 -71 -327 -217 -394 -412
-25 -71 -28 -95 -28 -205 -1 -111 2 -134 27 -203 15 -42 27 -80 27 -82 0 -3
-43 -5 -95 -5 l-95 0 0 -30 0 -30 800 0 800 0 0 30 0 30 -99 0 -99 0 24 64 23
64 -22 6 c-32 8 -47 7 -47 -4 0 -5 -9 -34 -21 -65 l-20 -55 -538 0 -539 0 -20
48 c-36 84 -46 135 -45 237 0 81 5 115 26 180 124 375 565 531 903 319 97 -61
199 -185 235 -287 12 -34 16 -37 39 -32 35 9 35 11 21 53 -63 182 -246 345
-451 401 -78 22 -224 27 -305 11z"/>
<path d="M280 610 l0 -30 305 0 305 0 0 -50 0 -50 -305 0 -305 0 0 -30 0 -30
335 0 335 0 0 110 0 110 -335 0 -335 0 0 -30z"/>
<path d="M2810 530 l0 -110 335 0 335 0 0 30 0 30 -305 0 -305 0 0 50 0 50
305 0 305 0 0 30 0 30 -335 0 -335 0 0 -110z"/>
<path d="M280 210 l0 -30 320 0 320 0 0 30 0 30 -320 0 -320 0 0 -30z"/>
<path d="M2840 210 l0 -30 320 0 320 0 0 30 0 30 -320 0 -320 0 0 -30z"/>
</g>
</svg>
