<?xml version="1.0" standalone="no"?>
<!DOCTYPE svg PUBLIC "-//W3C//DTD SVG 20010904//EN"
 "http://www.w3.org/TR/2001/REC-SVG-20010904/DTD/svg10.dtd">
<svg version="1.0" xmlns="http://www.w3.org/2000/svg"
 width="36.000000pt" height="30.000000pt" viewBox="0 0 36.000000 30.000000"
 preserveAspectRatio="xMidYMid meet">

<g transform="translate(0.000000,30.000000) scale(0.100000,-0.100000)"
fill="#000000" stroke="none">
<path d="M171 270 c-30 -16 -59 -34 -64 -39 -6 -6 -22 -11 -36 -11 -15 0 -31
-4 -36 -8 -9 -6 -35 -56 -35 -66 0 -2 39 -27 86 -56 80 -47 171 -90 194 -90
19 0 10 32 -10 37 -11 3 -20 9 -20 14 0 5 12 4 26 -1 32 -13 64 -13 64 -1 0 5
-17 15 -37 21 -43 14 -73 37 -33 25 88 -25 122 -7 38 20 -29 10 -57 21 -63 26
-12 12 -3 11 51 -2 32 -8 48 -9 56 -1 15 15 -39 40 -106 48 -31 4 -59 11 -63
17 -3 5 11 24 32 42 23 19 35 36 31 43 -10 16 -13 15 -75 -18z"/>
</g>
</svg>
