<?xml version="1.0" standalone="no"?>
<!DOCTYPE svg PUBLIC "-//W3C//DTD SVG 20010904//EN"
 "http://www.w3.org/TR/2001/REC-SVG-20010904/DTD/svg10.dtd">
<svg version="1.0" xmlns="http://www.w3.org/2000/svg"
 width="512.000000pt" height="512.000000pt" viewBox="0 0 512.000000 512.000000"
 preserveAspectRatio="xMidYMid meet">

<g transform="translate(0.000000,512.000000) scale(0.100000,-0.100000)"
fill="#000000" stroke="none">
<path d="M1208 4310 c-181 -31 -332 -114 -473 -261 -70 -73 -165 -199 -165
-218 0 -3 25 -22 56 -41 73 -46 177 -156 238 -252 l48 -76 62 47 c114 87 275
157 441 193 58 13 448 19 458 8 2 -3 -1 -45 -7 -95 l-11 -90 -70 5 c-141 10
-307 2 -390 -20 -132 -34 -273 -110 -378 -204 -27 -25 -27 -27 -13 -60 8 -19
27 -79 42 -133 15 -54 28 -99 29 -101 1 -1 35 13 76 33 126 59 214 78 374 78
104 0 167 -6 244 -21 57 -12 106 -24 108 -26 6 -5 -27 -150 -37 -167 -5 -8
-37 -4 -111 11 -151 32 -298 30 -405 -4 -94 -30 -204 -97 -203 -123 0 -10 8
-79 18 -153 14 -106 21 -134 32 -131 134 40 160 44 274 44 91 0 143 -6 215
-23 74 -17 253 -74 267 -85 3 -1 -54 -153 -63 -166 -3 -5 -30 1 -62 13 -240
90 -451 100 -592 28 l-40 -20 5 -208 4 -207 178 2 c98 0 221 6 273 12 l95 11
37 -43 c171 -198 284 -530 314 -923 l6 -92 42 5 c48 6 266 60 274 68 3 2 -14
89 -36 192 -195 879 -229 1576 -111 2278 22 132 83 392 123 524 15 47 23 88
19 92 -17 17 -226 115 -349 165 -151 60 -309 107 -438 129 -93 16 -316 19
-398 5z"/>
<path d="M3365 4144 c-248 -44 -437 -160 -507 -310 l-29 -63 30 -144 c34 -162
74 -426 93 -622 17 -174 17 -821 0 -1025 -20 -238 -38 -407 -79 -738 -30 -252
-34 -305 -23 -312 28 -17 183 -41 191 -29 4 6 10 42 13 80 4 38 18 113 31 166
79 325 246 602 476 788 l80 64 42 -18 c66 -29 277 -81 324 -81 3 0 3 36 2 80
-5 91 -4 90 -113 146 -153 79 -354 98 -565 55 -57 -12 -105 -20 -107 -18 -10
10 -51 163 -45 168 3 4 35 14 71 23 232 56 473 46 660 -29 46 -19 85 -33 86
-32 1 1 4 77 7 169 l6 167 -42 36 c-59 51 -164 101 -254 121 -60 13 -103 15
-202 11 -69 -4 -147 -9 -172 -13 l-45 -6 -12 78 c-16 104 -17 101 21 108 75
16 246 24 334 15 127 -12 201 -32 313 -86 52 -25 97 -45 99 -45 2 1 14 32 26
69 12 38 35 96 53 130 l31 61 -58 55 c-168 161 -377 237 -647 237 l-124 0 0
34 c0 18 -3 61 -6 95 l-7 61 94 0 c328 0 584 -90 809 -283 l63 -54 55 33 c73
44 148 65 255 72 l88 5 -6 31 c-79 395 -423 683 -902 755 -98 15 -311 12 -408
-5z"/>
<path d="M558 1701 c-202 -210 -331 -507 -354 -815 l-7 -85 29 -11 c64 -25
226 -60 344 -76 152 -20 605 -14 790 10 183 24 417 61 509 82 l24 5 -6 112
c-7 134 -36 308 -72 432 -26 91 -133 323 -159 345 -11 9 -57 9 -193 0 -268
-17 -554 6 -735 60 -36 11 -73 20 -81 20 -8 0 -48 -35 -89 -79z"/>
<path d="M3589 1703 c-93 -97 -154 -182 -212 -298 -86 -173 -138 -364 -140
-522 l-2 -87 75 -23 c150 -48 287 -65 547 -70 144 -3 297 -1 375 6 222 20 668
88 685 105 11 11 -15 283 -38 391 -37 180 -121 397 -187 483 l-18 23 -180 -11
c-269 -17 -555 6 -736 60 -36 11 -73 20 -80 20 -8 0 -48 -35 -89 -77z"/>
</g>
</svg>
