<?xml version="1.0" standalone="no"?>
<!DOCTYPE svg PUBLIC "-//W3C//DTD SVG 20010904//EN"
 "http://www.w3.org/TR/2001/REC-SVG-20010904/DTD/svg10.dtd">
<svg version="1.0" xmlns="http://www.w3.org/2000/svg"
 width="225.000000pt" height="225.000000pt" viewBox="0 0 225.000000 225.000000"
 preserveAspectRatio="xMidYMid meet">

<g transform="translate(0.000000,225.000000) scale(0.100000,-0.100000)"
fill="#000000" stroke="none">
<path d="M972 2239 c-154 -30 -289 -153 -342 -309 -25 -74 -29 -189 -10 -259
6 -23 9 -45 7 -47 -3 -3 -25 0 -51 7 -26 6 -87 10 -139 7 -82 -3 -102 -8 -171
-41 -285 -135 -354 -517 -133 -736 98 -97 174 -131 316 -140 l93 -6 -148 -135
c-82 -75 -200 -180 -262 -234 -144 -126 -154 -148 -106 -244 47 -95 148 -129
210 -71 13 12 35 58 50 105 38 122 154 308 298 479 l25 30 1 -71 c1 -179 96
-332 255 -409 179 -88 381 -57 524 80 l58 55 101 0 102 0 0 -125 c0 -120 1
-127 25 -150 22 -23 31 -25 125 -25 94 0 103 2 125 25 24 23 25 30 25 150 l0
125 125 0 c120 0 127 1 150 25 23 22 25 31 25 125 0 94 -2 103 -25 125 -23 24
-30 25 -150 25 l-125 0 0 102 0 101 55 58 c218 228 151 596 -133 737 -68 33
-84 37 -172 40 -68 3 -113 0 -149 -11 -28 -8 -51 -14 -51 -13 0 0 7 23 15 50
8 27 15 82 15 122 0 293 -267 511 -558 453z m205 -90 c54 -26 134 -114 167
-184 60 -126 49 -303 -26 -407 -23 -33 -19 -34 24 -8 49 29 53 25 19 -19 -17
-21 -31 -44 -31 -49 0 -12 28 -42 38 -42 4 0 33 19 65 43 81 61 144 82 242 82
93 0 124 -15 198 -94 135 -144 153 -355 46 -523 l-31 -48 -96 0 c-85 0 -98 -3
-119 -22 -13 -13 -23 -33 -23 -50 0 -24 -4 -28 -30 -28 -47 0 -136 38 -190 81
-35 28 -57 38 -70 34 -36 -11 -33 -41 9 -95 43 -54 81 -143 81 -190 0 -26 -4
-30 -28 -30 -17 0 -38 -10 -51 -24 -21 -22 -22 -31 -20 -142 l3 -118 -43 -37
c-144 -128 -385 -111 -521 37 -119 130 -135 353 -33 478 48 60 59 84 46 104
-17 28 -41 25 -79 -7 -84 -74 -214 -111 -318 -92 -207 38 -336 202 -324 412 8
140 84 251 216 316 71 36 82 38 166 38 78 0 99 -4 151 -28 33 -15 76 -40 95
-56 55 -43 60 -44 81 -25 25 22 25 24 -12 70 -18 22 -46 68 -63 104 -27 58
-31 75 -31 155 0 80 4 97 31 155 38 80 78 128 144 170 67 43 121 59 204 59 51
1 81 -5 113 -20z m695 -1454 c4 -169 4 -169 173 -173 l125 -4 0 -68 0 -68
-125 -4 c-169 -4 -169 -4 -173 -173 l-4 -125 -68 0 -68 0 -4 125 c-4 169 -4
169 -173 173 l-125 4 0 68 0 68 125 4 c169 4 169 4 173 173 l4 125 68 0 68 0
4 -125z m-279 32 l57 -12 0 -57 0 -58 -58 0 -57 0 -12 58 c-6 31 -14 66 -19
76 -6 16 -4 18 12 12 10 -5 45 -13 77 -19z"/>
<path d="M940 2074 c-83 -35 -170 -137 -149 -175 17 -33 54 -23 83 21 16 24
49 53 81 71 42 24 55 36 55 55 0 34 -28 45 -70 28z"/>
<path d="M395 1491 c-81 -20 -141 -66 -131 -99 10 -31 35 -34 72 -12 18 12 61
27 96 34 53 11 64 16 66 35 7 45 -29 60 -103 42z"/>
<path d="M1628 1490 c-38 -24 -14 -70 36 -70 16 0 56 -7 87 -16 68 -19 89 -14
89 21 0 21 -8 30 -46 46 -54 24 -142 34 -166 19z"/>
<path d="M181 1301 c-24 -24 -33 -68 -29 -140 2 -41 8 -57 24 -67 38 -25 51
-1 58 108 5 90 4 98 -14 108 -15 8 -24 6 -39 -9z"/>
</g>
</svg>
