<?xml version="1.0" standalone="no"?>
<!DOCTYPE svg PUBLIC "-//W3C//DTD SVG 20010904//EN"
 "http://www.w3.org/TR/2001/REC-SVG-20010904/DTD/svg10.dtd">
<svg version="1.0" xmlns="http://www.w3.org/2000/svg"
 width="512.000000pt" height="512.000000pt" viewBox="0 0 512.000000 512.000000"
 preserveAspectRatio="xMidYMid meet">

<g transform="translate(0.000000,512.000000) scale(0.100000,-0.100000)"
fill="#000000" stroke="none">
<path d="M3851 4940 c-148 -23 -292 -143 -375 -312 -60 -122 -65 -144 -34
-151 13 -3 180 -31 372 -63 192 -32 344 -60 338 -62 -6 -2 -179 -32 -384 -66
l-373 -62 3 -65 c5 -125 85 -338 135 -359 12 -5 133 -28 269 -51 136 -24 246
-44 244 -46 -3 -3 -287 -57 -495 -94 -164 -29 -232 -57 -314 -130 -49 -43
-147 -172 -147 -194 0 -10 285 -55 799 -127 64 -9 79 -13 60 -19 -13 -4 -237
-38 -496 -76 l-473 -68 -15 -70 c-9 -38 -22 -107 -29 -152 l-13 -83 31 -5 c17
-3 144 -18 281 -35 487 -59 818 -100 821 -103 2 -1 -254 -34 -569 -72 -315
-37 -576 -72 -581 -76 -4 -4 -11 -66 -14 -137 l-5 -129 34 -7 c19 -3 270 -40
558 -81 449 -64 577 -85 523 -85 -9 0 -1039 -147 -1066 -152 -6 -1 75 -5 179
-8 l190 -5 10 -154 c8 -119 13 -156 25 -162 8 -4 188 -31 400 -59 332 -45 425
-60 384 -60 -23 0 -775 -108 -779 -111 -2 -3 2 -87 8 -188 12 -184 12 -185 37
-191 14 -4 179 -29 368 -56 190 -27 335 -52 325 -56 -10 -4 -171 -28 -358 -54
-187 -26 -341 -48 -343 -49 -3 -3 14 -273 24 -382 l6 -63 478 0 479 0 5 33 c3
17 28 347 56 732 28 385 53 728 57 762 l6 63 220 0 220 0 -6 222 c-24 796
-154 1274 -399 1469 -79 62 -137 85 -310 119 l-58 11 63 77 c88 108 131 183
168 293 28 81 33 112 37 225 3 97 0 151 -12 212 -68 336 -307 552 -565 512z"/>
<path d="M1820 4780 c-877 -64 -1588 -119 -1580 -122 8 -4 656 -52 1440 -108
784 -56 1450 -104 1480 -107 l55 -5 23 88 c26 102 93 247 147 317 20 27 35 49
33 51 -1 1 -721 -50 -1598 -114z"/>
<path d="M1665 4164 c-770 -56 -1416 -104 -1435 -105 -19 -1 -26 -3 -15 -5 15
-3 3046 -224 3069 -224 3 0 -4 23 -15 52 -30 77 -57 201 -65 301 l-7 87 -66
-1 c-36 -1 -696 -48 -1466 -105z"/>
<path d="M1683 3561 c-799 -58 -1449 -108 -1445 -112 6 -5 2558 -191 2609
-189 16 0 28 15 52 66 49 105 115 197 197 273 49 45 69 71 58 70 -11 -1 -672
-49 -1471 -108z"/>
<path d="M1525 2943 c-693 -50 -1276 -93 -1295 -94 -26 -1 -29 -3 -10 -6 14
-2 583 -44 1264 -93 878 -64 1242 -87 1247 -79 3 6 9 41 13 78 4 36 16 110 27
165 11 54 19 104 17 110 -2 8 -364 -15 -1263 -81z"/>
<path d="M1760 2390 c-503 -37 -1061 -78 -1239 -91 -178 -12 -320 -24 -315
-26 12 -4 2487 -183 2490 -180 1 1 5 84 9 185 7 174 6 182 -11 181 -11 -1
-431 -32 -934 -69z"/>
<path d="M1422 1760 c-656 -48 -1194 -89 -1197 -91 -4 -5 2908 -218 2913 -213
2 1 0 39 -4 83 l-7 81 -213 0 -214 0 0 115 0 115 -42 -1 c-24 -1 -580 -41
-1236 -89z"/>
<path d="M1690 1174 c-773 -56 -1425 -104 -1450 -105 -41 -1 -40 -2 20 -10
113 -13 2909 -213 2915 -207 5 5 -10 267 -21 376 -5 49 -7 52 -32 51 -15 -1
-659 -48 -1432 -105z"/>
<path d="M1697 570 c-807 -59 -1469 -109 -1471 -111 -3 -2 668 -53 1491 -112
822 -60 1497 -107 1499 -104 3 3 0 74 -6 158 -16 243 -20 279 -33 278 -7 -1
-672 -50 -1480 -109z"/>
</g>
</svg>
