<?xml version="1.0" standalone="no"?>
<!DOCTYPE svg PUBLIC "-//W3C//DTD SVG 20010904//EN"
 "http://www.w3.org/TR/2001/REC-SVG-20010904/DTD/svg10.dtd">
<svg version="1.0" xmlns="http://www.w3.org/2000/svg"
 width="24.000000pt" height="30.000000pt" viewBox="0 0 24.000000 30.000000"
 preserveAspectRatio="xMidYMid meet">

<g transform="translate(0.000000,30.000000) scale(0.100000,-0.100000)"
fill="#000000" stroke="none">
<path d="M94 242 c-1 -31 3 -60 8 -63 7 -4 7 -9 0 -13 -7 -4 -15 11 -22 36
-18 72 -20 75 -30 58 -6 -9 -5 -17 2 -21 6 -4 8 -14 5 -23 -4 -9 -1 -16 4 -16
6 0 9 -9 6 -20 -3 -11 -1 -20 5 -20 5 0 6 -5 2 -11 -4 -7 -16 3 -30 27 -13 22
-24 34 -24 27 0 -15 32 -76 45 -85 6 -4 2 -8 -7 -8 -22 0 -22 -2 -3 -46 9 -23
19 -33 26 -28 7 4 9 3 6 -2 -3 -6 -2 -16 3 -23 10 -17 60 -6 60 12 0 8 11 24
25 37 14 13 25 28 25 33 0 5 9 21 20 37 18 26 18 40 -2 40 -5 0 -7 -4 -3 -10
3 -5 -4 -19 -16 -31 -31 -31 -42 -12 -49 79 -4 60 -7 71 -13 49 -4 -15 -5 -32
-2 -37 4 -6 2 -10 -3 -10 -11 0 -22 34 -22 68 0 12 -3 22 -7 22 -5 0 -9 -26
-9 -58z"/>
</g>
</svg>
