<?xml version="1.0" standalone="no"?>
<!DOCTYPE svg PUBLIC "-//W3C//DTD SVG 20010904//EN"
 "http://www.w3.org/TR/2001/REC-SVG-20010904/DTD/svg10.dtd">
<svg version="1.0" xmlns="http://www.w3.org/2000/svg"
 width="403.000000pt" height="407.000000pt" viewBox="0 0 403.000000 407.000000"
 preserveAspectRatio="xMidYMid meet">

<g transform="translate(0.000000,407.000000) scale(0.100000,-0.100000)"
fill="#000000" stroke="none">
<path d="M2895 3911 c-16 -5 -43 -14 -60 -20 -17 -7 -242 -224 -522 -504 -271
-270 -493 -489 -493 -486 0 21 79 220 122 306 49 100 50 103 46 180 -2 57 -10
91 -28 126 -79 157 -290 204 -438 97 -108 -78 -339 -389 -479 -645 -167 -305
-340 -749 -428 -1100 l-28 -110 -222 -225 c-123 -124 -228 -236 -235 -248 -6
-13 -9 -34 -6 -45 3 -12 211 -228 463 -479 395 -395 463 -458 488 -458 24 0
62 33 244 214 l216 214 75 0 c127 0 242 39 477 162 232 121 502 296 888 573
169 122 199 149 501 451 365 365 378 381 378 501 0 93 -30 160 -97 220 -27 25
-60 48 -73 51 -13 3 -24 9 -24 12 0 3 34 40 75 83 93 96 119 148 119 244 -1
112 -57 206 -155 256 l-41 20 76 79 c94 96 120 149 120 245 1 166 -122 289
-289 289 -96 0 -148 -25 -245 -120 l-79 -76 -20 41 c-29 55 -85 109 -139 133
-50 22 -141 31 -187 19z m120 -165 c62 -26 95 -118 64 -179 -6 -12 -222 -234
-480 -492 -447 -449 -469 -472 -469 -507 0 -28 6 -42 26 -57 31 -25 55 -26 92
-7 15 8 301 289 636 625 335 335 622 615 637 622 88 36 194 -58 174 -154 -6
-25 -134 -159 -636 -662 -586 -587 -629 -633 -629 -665 0 -46 33 -80 79 -80
33 0 63 27 516 480 l481 480 47 0 c79 0 126 -35 141 -107 15 -65 -5 -88 -494
-578 -504 -505 -494 -492 -449 -549 15 -20 29 -26 57 -26 35 0 53 16 352 316
173 173 327 322 342 330 67 35 154 4 182 -67 34 -84 35 -82 -308 -427 -290
-292 -323 -323 -491 -445 -577 -421 -1029 -681 -1239 -712 l-49 -7 -426 426
-426 426 23 92 c35 140 163 515 227 668 168 399 366 725 569 938 79 82 131
100 196 67 82 -43 91 -113 29 -236 -46 -92 -259 -659 -259 -690 0 -32 44 -69
82 -69 30 0 85 52 653 620 341 340 631 624 645 629 36 14 66 13 105 -3z
m-1979 -2533 l376 -376 -171 -171 -171 -171 -377 377 c-376 376 -377 377 -358
398 19 21 19 20 210 -170 240 -238 223 -234 361 -97 139 137 143 121 -96 362
-180 180 -189 192 -173 208 10 9 19 17 20 17 2 0 173 -170 379 -377z m-243
-95 c-16 -18 -24 -12 -170 134 -145 145 -152 153 -136 170 16 18 24 12 170
-134 145 -145 152 -153 136 -170z"/>
<path d="M1835 2526 c-41 -19 -262 -245 -270 -278 -4 -16 -1 -37 8 -54 9 -16
188 -201 399 -411 374 -374 385 -383 423 -383 37 0 47 7 172 133 119 119 133
136 133 167 0 33 -27 62 -397 432 -219 218 -407 399 -418 402 -11 3 -33 -1
-50 -8z m358 -504 l317 -317 -58 -58 -57 -57 -320 320 -320 320 55 55 c30 30
57 55 60 55 3 0 148 -143 323 -318z"/>
<path d="M1124 2040 c-28 -11 -54 -48 -54 -76 0 -12 9 -33 21 -48 l20 -26 188
0 c183 0 188 1 209 23 40 42 24 105 -32 127 -33 12 -322 12 -352 0z"/>
<path d="M1399 1721 c-31 -25 -32 -83 -1 -114 21 -20 33 -22 174 -25 172 -4
211 1 239 29 26 26 25 83 -1 109 -19 19 -33 20 -204 20 -165 0 -186 -2 -207
-19z"/>
<path d="M1709 1430 c-29 -17 -43 -65 -27 -96 23 -50 47 -55 236 -52 169 3
174 4 193 27 25 31 25 85 -1 111 -19 19 -33 20 -202 20 -101 0 -190 -5 -199
-10z"/>
</g>
</svg>
