<?xml version="1.0" standalone="no"?>
<!DOCTYPE svg PUBLIC "-//W3C//DTD SVG 20010904//EN"
 "http://www.w3.org/TR/2001/REC-SVG-20010904/DTD/svg10.dtd">
<svg version="1.0" xmlns="http://www.w3.org/2000/svg"
 width="17.000000pt" height="18.000000pt" viewBox="0 0 17.000000 18.000000"
 preserveAspectRatio="xMidYMid meet">

<g transform="translate(0.000000,18.000000) scale(0.100000,-0.100000)"
fill="#000000" stroke="none">
<path d="M70 160 c-9 -17 -7 -20 15 -20 22 0 25 -4 25 -36 0 -31 -2 -35 -15
-24 -8 7 -21 10 -29 7 -7 -3 -19 0 -25 6 -17 17 -35 -7 -35 -48 0 -41 12 -56
25 -33 8 14 14 15 32 7 16 -7 34 -6 62 3 35 12 40 17 37 42 -3 32 -46 102 -68
110 -7 3 -18 -4 -24 -14z"/>
</g>
</svg>
